REM DIRINDEX 1\2,1\3,1\4
REM DIRNAME cjc151,folder01,folder02,folder03
TITLE ""
FILE "094 094_TOEFL_3900.mp3" MP3
  TRACK 01 AUDIO
    TITLE "0:"
    INDEX 01 00:00:00
  TRACK 02 AUDIO
    TITLE "2:cjc151_4090"
    INDEX 01 00:00:15
  TRACK 03 AUDIO
    TITLE "0:"
    INDEX 01 00:01:15
  TRACK 04 AUDIO
    TITLE "3:cjc151_4091"
    INDEX 01 00:02:69
  TRACK 05 AUDIO
    TITLE "0:"
    INDEX 01 00:06:24
  TRACK 06 AUDIO
    TITLE "2:cjc151_4092"
    INDEX 01 00:08:03
  TRACK 07 AUDIO
    TITLE "0:"
    INDEX 01 00:10:27
  TRACK 08 AUDIO
    TITLE "3:cjc151_4093"
    INDEX 01 00:12:07
  TRACK 09 AUDIO
    TITLE "0:"
    INDEX 01 00:15:62
  TRACK 10 AUDIO
    TITLE "2:cjc151_4094"
    INDEX 01 00:17:49
  TRACK 11 AUDIO
    TITLE "0:"
    INDEX 01 00:18:62
  TRACK 12 AUDIO
    TITLE "3:cjc151_4095"
    INDEX 01 00:20:41
  TRACK 13 AUDIO
    TITLE "0:"
    INDEX 01 00:24:45
  TRACK 14 AUDIO
    TITLE "2:cjc151_4096"
    INDEX 01 00:26:26
  TRACK 15 AUDIO
    TITLE "0:"
    INDEX 01 00:27:38
  TRACK 16 AUDIO
    TITLE "3:cjc151_4097"
    INDEX 01 00:29:17
  TRACK 17 AUDIO
    TITLE "0:"
    INDEX 01 00:33:52
  TRACK 18 AUDIO
    TITLE "2:cjc151_4098"
    INDEX 01 00:35:31
  TRACK 19 AUDIO
    TITLE "0:"
    INDEX 01 00:36:36
  TRACK 20 AUDIO
    TITLE "3:cjc151_4099"
    INDEX 01 00:38:16
  TRACK 21 AUDIO
    TITLE "0:"
    INDEX 01 00:41:53
  TRACK 22 AUDIO
    TITLE "2:cjc151_4100"
    INDEX 01 00:43:31
  TRACK 23 AUDIO
    TITLE "0:"
    INDEX 01 00:44:38
  TRACK 24 AUDIO
    TITLE "3:cjc151_4101"
    INDEX 01 00:46:21
  TRACK 25 AUDIO
    TITLE "0:"
    INDEX 01 00:49:70
  TRACK 26 AUDIO
    TITLE "2:cjc151_4102"
    INDEX 01 00:51:50
  TRACK 27 AUDIO
    TITLE "0:"
    INDEX 01 00:52:41
  TRACK 28 AUDIO
    TITLE "3:cjc151_4103"
    INDEX 01 00:54:25
  TRACK 29 AUDIO
    TITLE "0:"
    INDEX 01 00:57:45
  TRACK 30 AUDIO
    TITLE "2:cjc151_4104"
    INDEX 01 00:59:24
  TRACK 31 AUDIO
    TITLE "0:"
    INDEX 01 01:00:31
  TRACK 32 AUDIO
    TITLE "3:cjc151_4105"
    INDEX 01 01:02:08
  TRACK 33 AUDIO
    TITLE "0:"
    INDEX 01 01:06:12
  TRACK 34 AUDIO
    TITLE "2:cjc151_4106"
    INDEX 01 01:07:66
  TRACK 35 AUDIO
    TITLE "0:"
    INDEX 01 01:09:03
  TRACK 36 AUDIO
    TITLE "3:cjc151_4107"
    INDEX 01 01:10:57
  TRACK 37 AUDIO
    TITLE "0:"
    INDEX 01 01:14:61
  TRACK 38 AUDIO
    TITLE "2:cjc151_4108"
    INDEX 01 01:16:42
  TRACK 39 AUDIO
    TITLE "0:"
    INDEX 01 01:17:61
  TRACK 40 AUDIO
    TITLE "3:cjc151_4109"
    INDEX 01 01:19:42
  TRACK 41 AUDIO
    TITLE "0:"
    INDEX 01 01:23:09
  TRACK 42 AUDIO
    TITLE "2:cjc151_4110"
    INDEX 01 01:24:63
  TRACK 43 AUDIO
    TITLE "0:"
    INDEX 01 01:25:70
  TRACK 44 AUDIO
    TITLE "3:cjc151_4111"
    INDEX 01 01:27:50
  TRACK 45 AUDIO
    TITLE "0:"
    INDEX 01 01:32:00
  TRACK 46 AUDIO
    TITLE "2:cjc151_4112"
    INDEX 01 01:33:54
  TRACK 47 AUDIO
    TITLE "0:"
    INDEX 01 01:34:48
  TRACK 48 AUDIO
    TITLE "3:cjc151_4113"
    INDEX 01 01:36:29
  TRACK 49 AUDIO
    TITLE "0:"
    INDEX 01 01:39:39
  TRACK 50 AUDIO
    TITLE "2:cjc151_4114"
    INDEX 01 01:41:16
  TRACK 51 AUDIO
    TITLE "0:"
    INDEX 01 01:42:16
  TRACK 52 AUDIO
    TITLE "3:cjc151_4115"
    INDEX 01 01:44:05
  TRACK 53 AUDIO
    TITLE "0:"
    INDEX 01 01:47:48
  TRACK 54 AUDIO
    TITLE "2:cjc151_4116"
    INDEX 01 01:49:26
  TRACK 55 AUDIO
    TITLE "0:"
    INDEX 01 01:50:43
  TRACK 56 AUDIO
    TITLE "3:cjc151_4117"
    INDEX 01 01:52:22
  TRACK 57 AUDIO
    TITLE "0:"
    INDEX 01 01:56:12
  TRACK 58 AUDIO
    TITLE "2:cjc151_4118"
    INDEX 01 01:57:66
  TRACK 59 AUDIO
    TITLE "0:"
    INDEX 01 01:59:12
  TRACK 60 AUDIO
    TITLE "3:cjc151_4119"
    INDEX 01 02:00:67
  TRACK 61 AUDIO
    TITLE "0:"
    INDEX 01 02:04:33
  TRACK 62 AUDIO
    TITLE "2:cjc151_4120"
    INDEX 01 02:06:14
  TRACK 63 AUDIO
    TITLE "0:"
    INDEX 01 02:06:73
  TRACK 64 AUDIO
    TITLE "3:cjc151_4121"
    INDEX 01 02:08:54
  TRACK 65 AUDIO
    TITLE "0:"
    INDEX 01 02:12:50
  TRACK 66 AUDIO
    TITLE "2:cjc151_4122"
    INDEX 01 02:14:30
  TRACK 67 AUDIO
    TITLE "0:"
    INDEX 01 02:15:31
  TRACK 68 AUDIO
    TITLE "3:cjc151_4123"
    INDEX 01 02:17:08
  TRACK 69 AUDIO
    TITLE "0:"
    INDEX 01 02:21:59
  TRACK 70 AUDIO
    TITLE "2:cjc151_4124"
    INDEX 01 02:23:36
  TRACK 71 AUDIO
    TITLE "0:"
    INDEX 01 02:24:49
  TRACK 72 AUDIO
    TITLE "3:cjc151_4125"
    INDEX 01 02:26:35
  TRACK 73 AUDIO
    TITLE "0:"
    INDEX 01 02:29:57
  TRACK 74 AUDIO
    TITLE "2:cjc151_4126"
    INDEX 01 02:31:34
  TRACK 75 AUDIO
    TITLE "0:"
    INDEX 01 02:32:39
  TRACK 76 AUDIO
    TITLE "3:cjc151_4127"
    INDEX 01 02:34:17
  TRACK 77 AUDIO
    TITLE "0:"
    INDEX 01 02:38:05
  TRACK 78 AUDIO
    TITLE "2:cjc151_4128"
    INDEX 01 02:39:67
  TRACK 79 AUDIO
    TITLE "0:"
    INDEX 01 02:40:68
  TRACK 80 AUDIO
    TITLE "3:cjc151_4129"
    INDEX 01 02:42:45
  TRACK 81 AUDIO
    TITLE "0:"
    INDEX 01 02:45:63
  TRACK 82 AUDIO
    TITLE "2:cjc151_4130"
    INDEX 01 02:47:51
  TRACK 83 AUDIO
    TITLE "0:"
    INDEX 01 02:48:62
  TRACK 84 AUDIO
    TITLE "3:cjc151_4131"
    INDEX 01 02:50:41
  TRACK 85 AUDIO
    TITLE "0:"
    INDEX 01 02:53:32
  TRACK 86 AUDIO
    TITLE "2:cjc151_4132"
    INDEX 01 02:55:09
  TRACK 87 AUDIO
    TITLE "0:"
    INDEX 01 02:56:34
  TRACK 88 AUDIO
    TITLE "3:cjc151_4133"
    INDEX 01 02:58:13
  TRACK 89 AUDIO
    TITLE "0:"
    INDEX 01 03:01:72
